<svg xmlns="http://www.w3.org/2000/svg"><style>:root svg:not(:target){display:none}</style><svg fill="none" viewBox="0 0 24 12" id="icon_arrow"><path stroke="#000" stroke-width="2" d="M0 6h18"></path><path fill="#000" fill-rule="evenodd" d="m24 6-6.75-5.2v10.39l6.75-5.19Z"></path></svg><svg fill="none" viewBox="0 0 24 24" id="icon_burger_button"><path stroke="#000" stroke-width="2" d="M0 3h24m-24 8h24m-24 8h24"></path></svg><svg fill="none" viewBox="0 0 26.09 31" id="icon_clock"><path fill="#FFF" d="M5.55 0c-1.06 0-1.06 1.58 0 1.58h6.67v1.6a13.21 13.21 0 0 0-12.22 13.3 13.4 13.4 0 0 0 4.51 10.07c.48.42.54 1.17.1 1.63l-1.53 1.56c-.75.68.36 1.75 1.03 1l2.01-2.04c.35-.34.87-.42 1.31-.21a12.85 12.85 0 0 0 11.11.06c.42-.21.96-.12 1.3.22l1.94 1.97c.68.63 1.66-.32 1.04-1l-1.45-1.48c-.45-.46-.38-1.2.11-1.64a13.34 13.34 0 0 0 4.61-10.15c0-7.07-5.43-12.88-12.27-13.29v-1.6h6.67c1.06 0 1.06-1.58 0-1.58h-14.94Zm-4.11 16.47a11.7 11.7 0 0 1 11.6-11.82c6.4 0 11.6 5.29 11.6 11.82 0 6.54-5.2 11.84-11.6 11.84-6.4 0-11.6-5.3-11.6-11.84Zm10.79-8.1c0-1.09 1.66-1.09 1.66 0v8.64c0 .22-.08.44-.24.6a.92.92 0 0 1-.61.24.8.8 0 0 1-.81-.79v-8.69Zm-4.99 2.62a1.15 1.15 0 1 0 0-2.3c-.29.03-.56.16-.75.37-.2.21-.3.49-.3.78 0 .28.1.56.3.77.19.21.46.34.75.37v.01Zm11.59 0c.31 0 .61-.12.83-.33.21-.22.34-.51.34-.82a1.17 1.17 0 0 0-1.17-1.15c-.28.03-.55.16-.75.37-.19.21-.3.49-.3.78 0 .28.11.56.3.77.2.21.47.34.75.37v.01Zm-10.43 12.59c0 1.53-2.32 1.53-2.32 0s2.32-1.53 2.32 0Zm4.64 3.44a1.11 1.11 0 0 0 .89-.29c.12-.11.22-.24.29-.39.06-.14.1-.3.1-.46 0-.16-.04-.32-.1-.47a1.33 1.33 0 0 0-.29-.38 1.14 1.14 0 0 0-.41-.24 1.3 1.3 0 0 0-.48-.06 1.16 1.16 0 0 0-1.05 1.15 1.15 1.15 0 0 0 1.05 1.14Zm-8.12-10.38a1.14 1.14 0 0 1-.68 1.16c-.15.07-.31.1-.47.1-.17 0-.33-.03-.47-.1a1 1 0 0 1-.39-.28c-.11-.12-.2-.26-.25-.41a1.15 1.15 0 0 1 1.11-1.51c.29 0 .56.11.78.3.21.19.35.45.37.74Zm17.39 1.15c.16.01.33 0 .48-.05a1.24 1.24 0 0 0 .7-.63c.06-.15.1-.31.1-.47 0-.16-.04-.31-.1-.46a1.24 1.24 0 0 0-.7-.63c-.15-.05-.32-.07-.48-.05a1.2 1.2 0 0 0-.75.37c-.19.21-.3.49-.3.77 0 .29.11.57.3.78.2.21.46.34.75.37Zm-2.31 5.8c0 1.52-2.33 1.52-2.33-.01s2.33-1.53 2.33 0v.01Z"></path></svg><svg fill="none" viewBox="0 0 18.06 19.09" id="icon_close_button"><path stroke="#000" stroke-width="1.5" d="m.51 18.55 17-18m-16.97 0 17 18"></path></svg><svg fill="none" viewBox="0 0 25 30" id="icon_cutlery"><rect width="24" height="29" rx="0" transform="translate(.5 .5)"></rect><path fill="#FFF" fill-rule="evenodd" d="M18.61.07a1 1 0 0 1 1.09.22c.91.91 2.1 2.88 3.06 5.92a42.6 42.6 0 0 1 1.74 12.79 1 1 0 0 1-1 1h-3.5v9a1 1 0 0 1-1 1 1 1 0 0 1-1-1v-28a1 1 0 0 1 .61-.93Zm1.39 17.93h2.49a39.57 39.57 0 0 0-1.64-11.19c-.27-.88-.57-1.64-.85-2.3v13.49Zm-18.5-18a1 1 0 0 1 1 1v5.5a2.93 2.93 0 0 0 2.5 2.9v-8.4c0-.56.44-1 1-1a1 1 0 0 1 1 1v8.4a2.93 2.93 0 0 0 2.5-2.9v-5.5c0-.56.44-1 1-1a1 1 0 0 1 1 1v5.5c0 .94-.31 2.18-1.18 3.2a5.08 5.08 0 0 1-3.32 1.73v17.57a1 1 0 0 1-1 1 1 1 0 0 1-1-1v-17.57a5.08 5.08 0 0 1-3.33-1.73 5.02 5.02 0 0 1-1.17-3.2v-5.5c0-.56.44-1 1-1Z"></path></svg><svg fill="none" viewBox="0 0 24.8 28" id="icon_leaf"><path fill="#FFF" d="M24.77.76a.95.95 0 0 0-.91-.76h-.01c-4.93.03-16.94.91-21.79 8.38-2.52 3.87-2.73 8.91-.64 14.96.01.05.05.08.07.12-.75 1.97-1.04 3.29-1.05 3.33-.11.54.22 1.07.72 1.18a.7.7 0 0 0 .2.03c.43 0 .82-.33.92-.79.02-.11 2.4-10.38 10.85-16.38.43-.31.55-.93.26-1.39a.9.9 0 0 0-1.3-.28c-4.79 3.41-7.74 8.01-9.47 11.66-1.24-4.58-.92-8.38.98-11.31 3.75-5.76 12.63-7.15 17.98-7.44-1.15 1.8-2.41 5.1-2.41 10.93 0 3.12-.83 5.52-2.46 7.14-2.62 2.59-6.88 2.83-10 2.58-.51-.05-.96.37-1 .92-.04.55.35 1.03.86 1.07.62.05 1.29.09 1.98.09 3.17 0 6.87-.67 9.43-3.2 2.04-2.01 3.07-4.9 3.07-8.6 0-9.1 3.21-11.1 3.23-11.11.39-.21.59-.68.49-1.13Z"></path></svg><svg fill="none" viewBox="0 0 27 34" id="icon_logo_html"><path fill="#666" d="m13.64.01-.14-.01-13.5 1.4v24.61l13.5 7.99 13.5-7.99v-24.61l-13.36-1.39Zm11.59 25-11.73 6.94-11.74-6.94v-10.09l11.69 6.92.02 1.25-8.02-4.74-.01 1.23 8.04 4.8.02 1.29-8.04-4.76-.01 1.23 8.05 4.81 8.12-4.84v-5.21l3.62-2.15-.01 10.26Zm0-11.56-3.22 1.88-1.48.87-7.07-4.18-.01 1.22 6.04 3.57-.05.03-.13.08-.86.49-4.99-2.95-.01 1.23 3.94 2.33-.94.61-.02.01-2.97-1.74-.01 1.22 1.95 1.14-1.99 1.18-11.62-6.87 11.64-6.96 11.8 6.84Zm0-1.23-11.79-6.91-11.68 6.9v-9.23l11.74-1.22 11.73 1.22v9.24Z"></path></svg><svg fill="none" viewBox="0 0 25.98 28.51" id="icon_powder"><path fill="#FFF" d="M10.87 0c-1.63 0-2.9 1.35-2.9 3.08 0 1.72 1.27 3.08 2.9 3.08s2.9-1.36 2.9-3.08c0-1.73-1.27-3.08-2.9-3.08Zm0 1.17c1 0 1.72.85 1.72 1.91 0 .99-.79 1.9-1.72 1.9-1 0-1.72-.84-1.72-1.9 0-1 .78-1.91 1.72-1.91Zm-10.87 23.57c0 1.17.4 2.17 1.35 2.99 1 .85 2.18.78 2.18.78h19.03a3.4 3.4 0 0 0 2.63-1.45c.84-1 .79-2.36.79-2.36v-17.22c0-.43-.11-.6-.75-.6-.63 0-.68.27-.68.59v17.22a2.5 2.5 0 0 1-.75 1.72c-.73.63-1.45.55-1.45.55s-18.12 0-19.03-.03a2.14 2.14 0 0 1-1.45-.91c-.51-.72-.41-1.63-.41-1.63v-17.22c0-.46-.23-.63-.72-.63s-.74.17-.74.58v17.62Zm16.31-16.32c-1.09.24-2.18.38-4.26 2.36-2.09 1.99-3.63 1.9-5.17 1.81-1.54-.09-3.17-1.54-3.44-1.9-.34-.35-.91-.12-1.09.12-.15.23-.15.64.11.99 1.27 1.18 2.45 2.09 4.71 2.27a7.48 7.48 0 0 0 5.89-2.27c1.45-1.45 2.18-1.72 3.27-1.9a6.3 6.3 0 0 1 5.07 1.27c1 1.09 1.27.78 1.54.47.55-.72-.23-1.27-1.09-1.9a7.22 7.22 0 0 0-5.52-1.27l-.02-.05Zm-9.06 7.16c-1.18 0-2.09 1-2.09 2.27s.91 2.26 2.09 2.26c1.17 0 2.08-.99 2.08-2.26 0-1.27-.91-2.27-2.08-2.27Zm11.78.78c-1.54 0-2.81 1.36-2.81 2.99 0 1.63 1.27 2.99 2.81 2.99s2.81-1.36 2.81-2.99c0-1.63-1.27-2.99-2.81-2.99Zm0 1.45c.79 0 1.45.7 1.45 1.54a1.5 1.5 0 0 1-1.45 1.54c-.8 0-1.45-.69-1.45-1.54 0-.86.65-1.54 1.45-1.54Z"></path></svg><svg fill="none" viewBox="0 0 78 80.033" id="icon_present"><defs><clipPath id="icon_present_0"><rect width="77" height="79.033" fill="#fff" fill-opacity="0" rx="0" transform="translate(.5 .5)"></rect></clipPath></defs><rect width="77" height="79.033" rx="0" transform="translate(.5 .5)"></rect><g fill="#FFF" clip-path="url(#icon_present_0)"><path d="M64.01 34.72h-49.98a3.18 3.18 0 0 1-3.19-3.16v-9.47a3.18 3.18 0 0 1 3.19-3.16h49.98a3.18 3.18 0 0 1 3.18 3.16v9.47a3.18 3.18 0 0 1-3.18 3.16Zm-49.98-13.37a.75.75 0 0 0-.75.74v9.47c0 .41.34.74.75.74h49.98c.41 0 .74-.33.74-.74v-9.47c0-.4-.34-.74-.74-.74h-49.98Z"></path><path d="M57.04 67.17h-36.05a6.11 6.11 0 0 1-6.12-6.09v-27.57c0-.67.55-1.21 1.22-1.21.67 0 1.22.54 1.22 1.21v27.57a3.68 3.68 0 0 0 3.68 3.67h36.05a3.69 3.69 0 0 0 3.69-3.67v-27.57c0-.67.54-1.21 1.21-1.21.68 0 1.22.54 1.22 1.21v27.57a6.1 6.1 0 0 1-6.12 6.09Z"></path><path d="M39.02 67.17c-.68 0-1.22-.54-1.22-1.21v-32.45c0-.67.54-1.21 1.22-1.21.67 0 1.22.54 1.22 1.21v32.45c0 .67-.55 1.21-1.22 1.21Zm-15.21-45.82a7.82 7.82 0 1 1 7.49-13.76c5.81 3.13 8.95 11.86 9.08 12.23l-2.3.8c-.03-.08-2.96-8.22-7.94-10.9a5.45 5.45 0 0 0-7.36 2.17 5.38 5.38 0 0 0 2.19 7.32l-1.16 2.14Z"></path><path d="m54.23 21.35-1.16-2.14a5.38 5.38 0 0 0-1.04-9.92 5.4 5.4 0 0 0-4.13.43c-4.98 2.68-7.92 10.82-7.95 10.9l-2.3-.8c.13-.37 3.27-9.1 9.09-12.23a7.81 7.81 0 0 1 5.99-.62 7.77 7.77 0 0 1 5.29 9.73 7.8 7.8 0 0 1-3.79 4.65Zm7.71 29.6h-45.85c-.67 0-1.22-.55-1.22-1.21 0-.67.55-1.22 1.22-1.22h45.85a1.22 1.22 0 1 1 0 2.43Z"></path></g></svg><svg fill="none" viewBox="0 0 19.7 17.07" id="icon_tg"><path fill="#666" fill-rule="evenodd" d="M19.46.15c.17.15.26.38.22.61l-2.62 15.76a.67.67 0 0 1-.39.49.65.65 0 0 1-.63-.06l-7.87-5.25a.64.64 0 0 1-.15-.95l2.61-3.27-4.36 2.91a.65.65 0 0 1-.66.04l-5.25-2.63a.63.63 0 0 1-.36-.62.64.64 0 0 1 .43-.58l18.38-6.57a.67.67 0 0 1 .65.12Zm-17.14 7.17 3.54 1.77 7.56-5.05a.66.66 0 0 1 .85.11c.22.24.23.6.03.85l-4.81 6.01 6.44 4.29 2.27-13.65-15.88 5.67Z"></path></svg><svg fill="none" viewBox="0 0 26.96 17" id="icon_vk"><path fill="#666" d="M0 2.33c0-.85.51-1.31 1.54-1.38l3.97.03c.27 0 .44.12.53.37.41 1.26.87 2.35 1.38 3.26.5.91 1.16 1.97 1.98 3.16.07.15.19.22.35.22.12 0 .22-.06.29-.17l.08-.28.03-4.35c0-.3-.08-.5-.23-.6a1.94 1.94 0 0 0-.84-.23c-.32-.05-.48-.24-.48-.55 0-.07.01-.12.03-.16.37-1.08 1.44-1.63 3.19-1.63l1.5-.02c.67 0 1.23.15 1.68.47.44.32.66.82.66 1.51v5.71c.13.08.24.13.35.13.26 0 .49-.15.69-.46 1.95-2.58 3.01-4.31 3.17-5.18a1.76 1.76 0 0 1 .67-.78c.28-.18.53-.31.74-.37a.47.47 0 0 1 .24-.05h4.13l.27.02c.35 0 .63.16.82.48a1.34 1.34 0 0 1 .2.68l.02.2v.18a6.21 6.21 0 0 1-.95 2.2c-.5.78-1.15 1.62-1.93 2.52-.78.91-1.27 1.5-1.46 1.79-.16.2-.24.38-.24.55 0 .14.07.29.21.45l3.89 4.63c.21.27.32.56.32.88 0 .39-.16.71-.48.96-.32.25-.7.39-1.15.42l-.45.03h-4.05a.6.6 0 0 0-.11.01l-.1.02c-.39 0-.76-.16-1.1-.48l-2.5-2.97a1.34 1.34 0 0 0-.37-.33c-.07.27-.17.66-.28 1.16l-.26 1.08-.08.43c-.17.59-.55.94-1.11 1.05l-.38.03h-2.61c-1.47 0-2.94-.64-4.41-1.91a19.45 19.45 0 0 1-3.95-4.94 46.24 46.24 0 0 1-3.28-7.06 1.86 1.86 0 0 1-.13-.73Zm16.01 6.52c-.38 0-.71-.1-1.01-.29a.89.89 0 0 1-.46-.79v-5.79c0-.33-.09-.57-.26-.71-.18-.15-.49-.22-.94-.22l-1.52.05c-.76 0-1.34.13-1.73.38.78.35 1.18.92 1.18 1.71v4.42c-.04.42-.22.77-.54 1.05-.32.28-.67.41-1.06.41-.54 0-.94-.24-1.23-.73a26.33 26.33 0 0 1-3.09-5.63l-.24-.65-3.54-.03c-.23 0-.36.01-.39.04-.03.02-.04.1-.04.21 0 .15.02.31.05.48l.56 1.41c1.5 3.64 3.12 6.5 4.87 8.6 1.75 2.1 3.46 3.14 5.15 3.14h2.67c.1 0 .18-.03.24-.08a.96.96 0 0 0 .13-.34l.05-.26.51-2.21c.14-.3.26-.5.37-.6.2-.19.43-.28.69-.28.43 0 .87.24 1.31.73l2.26 2.72c.15.21.3.32.46.32h4.39c.54 0 .8-.12.8-.37a.4.4 0 0 0-.08-.25l-3.86-4.56c-.3-.35-.45-.73-.45-1.13 0-.4.14-.79.42-1.16.23-.33.68-.89 1.35-1.67a36.7 36.7 0 0 0 1.74-2.19 6 6 0 0 0 .99-1.84l.08-.33a.32.32 0 0 1-.03-.16.92.92 0 0 0-.02-.19h-4.19c-.26.1-.48.25-.64.45l-.16.48c-.44 1.15-1.6 2.94-3.49 5.35-.37.34-.81.51-1.3.51Z"></path></svg><svg fill="none" viewBox="0 0 24 18.68" id="icon_youtube"><path fill="#666" d="m15.85 8.79-5.24-3.49a.57.57 0 0 0-.33-.11.57.57 0 0 0-.34.08.64.64 0 0 0-.34.57v6.98a.64.64 0 0 0 .34.58.65.65 0 0 0 .67-.03l5.24-3.49a.61.61 0 0 0 .21-.24c.05-.09.08-.2.08-.31a.66.66 0 0 0-.29-.54Zm-4.95 2.81v-4.54l3.41 2.27-3.41 2.27Zm12.48-8.56a2.41 2.41 0 0 0-1.45-1.64c-3.72-1.43-9.68-1.4-9.93-1.4-.26 0-6.22-.03-9.94 1.4a2.41 2.41 0 0 0-1.45 1.64 25 25 0 0 0-.61 6.29c0 3.27.32 5.23.61 6.3a2.3 2.3 0 0 0 1.45 1.63c3.72 1.43 9.68 1.41 9.94 1.41h.07c.75 0 6.32-.04 9.86-1.41a2.3 2.3 0 0 0 1.45-1.63c.29-1.07.62-3.03.62-6.3 0-3.26-.33-5.22-.62-6.29Zm-1.26 12.26a1.1 1.1 0 0 1-.66.74c-3.49 1.34-9.4 1.32-9.46 1.32-.07 0-5.98.02-9.47-1.32a1.1 1.1 0 0 1-.66-.74c-.26-1-.57-2.85-.57-5.97 0-3.12.31-4.96.57-5.96.04-.17.13-.32.24-.45.11-.13.26-.23.42-.3 3.49-1.34 9.4-1.32 9.47-1.32.06 0 5.97-.02 9.46 1.32.16.07.31.17.42.3.11.13.2.28.24.45.26 1 .57 2.84.57 5.96s-.31 4.97-.57 5.97Z"></path></svg><svg fill="none" viewBox="0 0 67.032 28.081" id="power_cat"><path fill="#000" d="M61.55 2.87a7.71 7.71 0 0 1 2.25-2.3c.5-.35.8-.35 1.1.3.4.95.75 1.95.45 3-.05.18-.06.37-.03.55.04.19.12.36.23.5.3.4.55.8.8 1.15a3.1 3.1 0 0 1 .45 3.1c-.18.5-.21 1.04-.1 1.55.1.5.1 1.01 0 1.5a1.88 1.88 0 0 1-1.35 1.6c-.64.13-1.21.48-1.6 1a.5.5 0 0 1-.19.19.58.58 0 0 1-.26.06c-.6.1-2.1-1.25-2.1-1.85v-.3c.05-1.8-.05-1.95-1.7-2.7a2.16 2.16 0 0 1-.9-.6c-.3-.4-.7-.35-1.15-.2-.45.15-.7.45-.65.95.15 1.21.21 2.43.15 3.65.01.14.04.28.1.4 1.55 2.25 2.15 4.9 2.9 7.45.6 1.95 1.7 3 3.7 3.15.32.03.64.08.95.15.41.07.8.26 1.1.54.3.29.51.66.6 1.06.35 1.05.15 1.3-.9 1.3h-3.25c-.42.02-.83-.12-1.15-.4a6.04 6.04 0 0 0-1.7-1 3.63 3.63 0 0 1-1.7-1.3 14.2 14.2 0 0 0-2-2.25c-1.4-1.45-2.9-2.85-4.2-4.35a5.67 5.67 0 0 1-1.6-3.8c0-.45-.1-.65-.6-.45a.89.89 0 0 1-.5.15c-1.4 0-2.1.85-2.6 2.1-.45 1.05-1.05 2.05-1.6 3.1a5.3 5.3 0 0 0-.5 2.1c0 1.2.3 1.6 1.4 2 .7.25 1.35.5 1.7 1.2.4.8.3 1-.55 1.05h-3.4a.92.92 0 0 1-.56-.12.96.96 0 0 1-.39-.43l-.9-1.5a3.08 3.08 0 0 1-.35-2.7c.22-.86.24-1.77.05-2.65a4.23 4.23 0 0 1 .85-3.5c.3-.35.3-.5-.2-.6a24.88 24.88 0 0 1-5.9-2.05l-.03-.01-.02-.04c-1.6-.6-1.9-.5-2.35 1.15-.4 1.4-.8 2.8-1.1 4.25-.35 1.6.05 3.1.55 4.6.2.6.8.55 1.25.7 1 .3 1.85.7 2.25 1.75.35.8.3.9-.55.9-.85 0-1.7-.05-2.6 0-.76.02-1.5-.23-2.1-.7-2.4-1.6-3.1-4.05-3.3-6.7-.1-1.65-1-2.95-2.05-4.2-.2-.25-.4-.35-.7-.15-1.07.6-2.19 1.1-3.35 1.5a13.43 13.43 0 0 0-6.1 4.4 5.45 5.45 0 0 0-1.1 2.55c-.15.9.1 1.3 1 1.55s1.35.75 1.45 1.7c.05.4-.1.6-.5.6h-4.05a.83.83 0 0 1-.65-.4 4.33 4.33 0 0 1-.95-2.75c-.02-1.72.13-3.45.45-5.15a3.2 3.2 0 0 1 1.7-2.4c2.95-1.4 4.5-4.05 5.9-6.8.3-.55.05-.65-.45-.6-1.4.2-2.72.75-3.85 1.6a36 36 0 0 0-4.15 3.55 8.25 8.25 0 0 1-5.15 2.45c-3.65.2-5.35-1.85-5.2-5.15.04-1.12.46-2.2 1.2-3.05.26-.33.61-.58 1.01-.71a2.1 2.1 0 0 1 1.24-.04c.75.2.95.6.65 1.35-.15.3-.35.55-.5.85-.21.31-.38.65-.5 1-.55 1.5.2 2.55 1.75 2.7 1.65.15 3-.55 4.25-1.55 1.51-1.2 2.85-2.6 4-4.15a10.56 10.56 0 0 1 3.18-2.77 10.59 10.59 0 0 1 4.02-1.28c1.15-.15 2.15-.65 3.25-.95 2.06-.62 4.2-.93 6.35-.9 1 .04 1.99-.14 2.9-.55 2.45-1 5-1 7.55-.5 2 .4 4 .9 5.95 1.4a8.1 8.1 0 0 0 3.5-.1c2.2-.55 4.44-.89 6.7-1a9.08 9.08 0 0 1 4.3.85c1 .45 1 .45.75 1.4Z"></path></svg><svg viewBox="0 0 24 18" fill="none" id="slider_arrows"><path d="m8 0-8 9 8 9v-18Zm16 9-8-9v18l8-9Z" fill="#666"></path></svg><svg fill="none" viewBox="0 0 36.017 50" id="slim_cat"><path fill="#000" d="M28.2 0h-.2c-.33.18-.59.47-.75.81a7.95 7.95 0 0 0-.66 1.76.87.87 0 0 1-.26.48.86.86 0 0 1-.5.21c-.57.1-1.11.33-1.57.67-.47.33-.85.77-1.12 1.28-.37.66-.69 1.35-.95 2.06-.73 1.9-1.29 3.86-1.98 5.77-.33.87-.34.87-1.32.87-1.17 0-1.09-.18-1.1 1.11 0 .41.12.61.55.59.14 0 .34-.06.39.11.05.18-.12.25-.23.36a4.7 4.7 0 0 1-2.22 1.26c-.98.26-1.98.46-2.93.78-2.44.82-4.7 1.97-6.46 3.91a14.48 14.48 0 0 0-2.44 4.04c-1.88 4.45-2.8 9.14-3.51 13.88a99.44 99.44 0 0 0-.75 6.7c-.09 1.1-.19 2.22-.19 3.35h17.14c.02-.23-.02-.46-.12-.66a2.48 2.48 0 0 0-.78-1.05 2.53 2.53 0 0 0-1.19-.54c-.36-.08-.4-.19-.18-.47.36-.48.64-1.02.82-1.6.83-2.48 1.16-5.07 1.56-7.63.23-1.96.83-3.85 1.77-5.58a11.17 11.17 0 0 1 2.88-3.28c.43-.33.44-.33.51.22.05.37.06.74.09 1.12.15 2.43.12 4.87-.09 7.31-.2 1.88-.22 3.78-.08 5.67.2 2.19.6 4.36 1.17 6.49h6.84a2.81 2.81 0 0 0-2.18-2.29 4.53 4.53 0 0 0-1.94.1c-.3.07-.43 0-.46-.34-.21-2.72-.04-5.47.52-8.15a92.5 92.5 0 0 0 1.57-9.37c.13-1.27.53-2.5 1.17-3.61.61-1.09 1.15-2.23 1.75-3.32a3.06 3.06 0 0 0 .22-2.68c-.14-.37-.28-.74-.45-1.09-.51-1-1.02-2-1.5-3.01-.25-.52-.19-.58.37-.6.84 0 .84 0 .85-.84v-.34c0-.36-.13-.55-.51-.52h-.79c-.35 0-.45-.15-.37-.51a3.22 3.22 0 0 1 2.64-2.29 11.5 11.5 0 0 1 3.41.23c.13.04.27.03.39-.04a.5.5 0 0 0 .25-.29c.21-.52.43-1.03.66-1.55.06-.09.08-.2.07-.3a.5.5 0 0 0-.12-.29c-1.64-2.09-3.43-4.04-5.86-5.3a.76.76 0 0 1-.45-.57c-.14-.74-.36-1.46-.66-2.15a1.74 1.74 0 0 0-.72-.88Z"></path></svg><svg id="stack"><style>:root svg:not(:target){display:none}</style><svg fill="none" viewBox="0 0 24 12" id="stack_0"><path stroke="#000" stroke-width="2" d="M0 6h18"></path><path fill="#000" fill-rule="evenodd" d="m24 6-6.75-5.2v10.39l6.75-5.19Z"></path></svg><svg fill="none" viewBox="0 0 24 24" id="stack_1"><path stroke="#000" stroke-width="2" d="M0 3h24m-24 8h24m-24 8h24"></path></svg><svg fill="none" viewBox="0 0 26.09 31" id="stack_2"><path fill="#FFF" d="M5.55 0c-1.06 0-1.06 1.58 0 1.58h6.67v1.6a13.21 13.21 0 0 0-12.22 13.3 13.4 13.4 0 0 0 4.51 10.07c.48.42.54 1.17.1 1.63l-1.53 1.56c-.75.68.36 1.75 1.03 1l2.01-2.04c.35-.34.87-.42 1.31-.21a12.85 12.85 0 0 0 11.11.06c.42-.21.96-.12 1.3.22l1.94 1.97c.68.63 1.66-.32 1.04-1l-1.45-1.48c-.45-.46-.38-1.2.11-1.64a13.34 13.34 0 0 0 4.61-10.15c0-7.07-5.43-12.88-12.27-13.29v-1.6h6.67c1.06 0 1.06-1.58 0-1.58h-14.94Zm-4.11 16.47a11.7 11.7 0 0 1 11.6-11.82c6.4 0 11.6 5.29 11.6 11.82 0 6.54-5.2 11.84-11.6 11.84-6.4 0-11.6-5.3-11.6-11.84Zm10.79-8.1c0-1.09 1.66-1.09 1.66 0v8.64c0 .22-.08.44-.24.6a.92.92 0 0 1-.61.24.8.8 0 0 1-.81-.79v-8.69Zm-4.99 2.62a1.15 1.15 0 1 0 0-2.3c-.29.03-.56.16-.75.37-.2.21-.3.49-.3.78 0 .28.1.56.3.77.19.21.46.34.75.37v.01Zm11.59 0c.31 0 .61-.12.83-.33.21-.22.34-.51.34-.82a1.17 1.17 0 0 0-1.17-1.15c-.28.03-.55.16-.75.37-.19.21-.3.49-.3.78 0 .28.11.56.3.77.2.21.47.34.75.37v.01Zm-10.43 12.59c0 1.53-2.32 1.53-2.32 0s2.32-1.53 2.32 0Zm4.64 3.44a1.11 1.11 0 0 0 .89-.29c.12-.11.22-.24.29-.39.06-.14.1-.3.1-.46 0-.16-.04-.32-.1-.47a1.33 1.33 0 0 0-.29-.38 1.14 1.14 0 0 0-.41-.24 1.3 1.3 0 0 0-.48-.06 1.16 1.16 0 0 0-1.05 1.15 1.15 1.15 0 0 0 1.05 1.14Zm-8.12-10.38a1.14 1.14 0 0 1-.68 1.16c-.15.07-.31.1-.47.1-.17 0-.33-.03-.47-.1a1 1 0 0 1-.39-.28c-.11-.12-.2-.26-.25-.41a1.15 1.15 0 0 1 1.11-1.51c.29 0 .56.11.78.3.21.19.35.45.37.74Zm17.39 1.15c.16.01.33 0 .48-.05a1.24 1.24 0 0 0 .7-.63c.06-.15.1-.31.1-.47 0-.16-.04-.31-.1-.46a1.24 1.24 0 0 0-.7-.63c-.15-.05-.32-.07-.48-.05a1.2 1.2 0 0 0-.75.37c-.19.21-.3.49-.3.77 0 .29.11.57.3.78.2.21.46.34.75.37Zm-2.31 5.8c0 1.52-2.33 1.52-2.33-.01s2.33-1.53 2.33 0v.01Z"></path></svg><svg fill="none" viewBox="0 0 18.06 19.09" id="stack_3"><path stroke="#000" stroke-width="1.5" d="m.51 18.55 17-18m-16.97 0 17 18"></path></svg><svg fill="none" viewBox="0 0 25 30" id="stack_4"><rect width="24" height="29" rx="0" transform="translate(.5 .5)"></rect><path fill="#FFF" fill-rule="evenodd" d="M18.61.07a1 1 0 0 1 1.09.22c.91.91 2.1 2.88 3.06 5.92a42.6 42.6 0 0 1 1.74 12.79 1 1 0 0 1-1 1h-3.5v9a1 1 0 0 1-1 1 1 1 0 0 1-1-1v-28a1 1 0 0 1 .61-.93Zm1.39 17.93h2.49a39.57 39.57 0 0 0-1.64-11.19c-.27-.88-.57-1.64-.85-2.3v13.49Zm-18.5-18a1 1 0 0 1 1 1v5.5a2.93 2.93 0 0 0 2.5 2.9v-8.4c0-.56.44-1 1-1a1 1 0 0 1 1 1v8.4a2.93 2.93 0 0 0 2.5-2.9v-5.5c0-.56.44-1 1-1a1 1 0 0 1 1 1v5.5c0 .94-.31 2.18-1.18 3.2a5.08 5.08 0 0 1-3.32 1.73v17.57a1 1 0 0 1-1 1 1 1 0 0 1-1-1v-17.57a5.08 5.08 0 0 1-3.33-1.73 5.02 5.02 0 0 1-1.17-3.2v-5.5c0-.56.44-1 1-1Z"></path></svg><svg fill="none" viewBox="0 0 24.8 28" id="stack_5"><path fill="#FFF" d="M24.77.76a.95.95 0 0 0-.91-.76h-.01c-4.93.03-16.94.91-21.79 8.38-2.52 3.87-2.73 8.91-.64 14.96.01.05.05.08.07.12-.75 1.97-1.04 3.29-1.05 3.33-.11.54.22 1.07.72 1.18a.7.7 0 0 0 .2.03c.43 0 .82-.33.92-.79.02-.11 2.4-10.38 10.85-16.38.43-.31.55-.93.26-1.39a.9.9 0 0 0-1.3-.28c-4.79 3.41-7.74 8.01-9.47 11.66-1.24-4.58-.92-8.38.98-11.31 3.75-5.76 12.63-7.15 17.98-7.44-1.15 1.8-2.41 5.1-2.41 10.93 0 3.12-.83 5.52-2.46 7.14-2.62 2.59-6.88 2.83-10 2.58-.51-.05-.96.37-1 .92-.04.55.35 1.03.86 1.07.62.05 1.29.09 1.98.09 3.17 0 6.87-.67 9.43-3.2 2.04-2.01 3.07-4.9 3.07-8.6 0-9.1 3.21-11.1 3.23-11.11.39-.21.59-.68.49-1.13Z"></path></svg><svg fill="none" viewBox="0 0 27 34" id="stack_6"><path fill="#666" d="m13.64.01-.14-.01-13.5 1.4v24.61l13.5 7.99 13.5-7.99v-24.61l-13.36-1.39Zm11.59 25-11.73 6.94-11.74-6.94v-10.09l11.69 6.92.02 1.25-8.02-4.74-.01 1.23 8.04 4.8.02 1.29-8.04-4.76-.01 1.23 8.05 4.81 8.12-4.84v-5.21l3.62-2.15-.01 10.26Zm0-11.56-3.22 1.88-1.48.87-7.07-4.18-.01 1.22 6.04 3.57-.05.03-.13.08-.86.49-4.99-2.95-.01 1.23 3.94 2.33-.94.61-.02.01-2.97-1.74-.01 1.22 1.95 1.14-1.99 1.18-11.62-6.87 11.64-6.96 11.8 6.84Zm0-1.23-11.79-6.91-11.68 6.9v-9.23l11.74-1.22 11.73 1.22v9.24Z"></path></svg><svg fill="none" viewBox="0 0 25.98 28.51" id="stack_7"><path fill="#FFF" d="M10.87 0c-1.63 0-2.9 1.35-2.9 3.08 0 1.72 1.27 3.08 2.9 3.08s2.9-1.36 2.9-3.08c0-1.73-1.27-3.08-2.9-3.08Zm0 1.17c1 0 1.72.85 1.72 1.91 0 .99-.79 1.9-1.72 1.9-1 0-1.72-.84-1.72-1.9 0-1 .78-1.91 1.72-1.91Zm-10.87 23.57c0 1.17.4 2.17 1.35 2.99 1 .85 2.18.78 2.18.78h19.03a3.4 3.4 0 0 0 2.63-1.45c.84-1 .79-2.36.79-2.36v-17.22c0-.43-.11-.6-.75-.6-.63 0-.68.27-.68.59v17.22a2.5 2.5 0 0 1-.75 1.72c-.73.63-1.45.55-1.45.55s-18.12 0-19.03-.03a2.14 2.14 0 0 1-1.45-.91c-.51-.72-.41-1.63-.41-1.63v-17.22c0-.46-.23-.63-.72-.63s-.74.17-.74.58v17.62Zm16.31-16.32c-1.09.24-2.18.38-4.26 2.36-2.09 1.99-3.63 1.9-5.17 1.81-1.54-.09-3.17-1.54-3.44-1.9-.34-.35-.91-.12-1.09.12-.15.23-.15.64.11.99 1.27 1.18 2.45 2.09 4.71 2.27a7.48 7.48 0 0 0 5.89-2.27c1.45-1.45 2.18-1.72 3.27-1.9a6.3 6.3 0 0 1 5.07 1.27c1 1.09 1.27.78 1.54.47.55-.72-.23-1.27-1.09-1.9a7.22 7.22 0 0 0-5.52-1.27l-.02-.05Zm-9.06 7.16c-1.18 0-2.09 1-2.09 2.27s.91 2.26 2.09 2.26c1.17 0 2.08-.99 2.08-2.26 0-1.27-.91-2.27-2.08-2.27Zm11.78.78c-1.54 0-2.81 1.36-2.81 2.99 0 1.63 1.27 2.99 2.81 2.99s2.81-1.36 2.81-2.99c0-1.63-1.27-2.99-2.81-2.99Zm0 1.45c.79 0 1.45.7 1.45 1.54a1.5 1.5 0 0 1-1.45 1.54c-.8 0-1.45-.69-1.45-1.54 0-.86.65-1.54 1.45-1.54Z"></path></svg><svg fill="none" viewBox="0 0 78 80.033" id="stack_8"><defs><clipPath id="stack_9"><rect width="77" height="79.033" fill="#fff" fill-opacity="0" rx="0" transform="translate(.5 .5)"></rect></clipPath></defs><rect width="77" height="79.033" rx="0" transform="translate(.5 .5)"></rect><g fill="#FFF" clip-path="url(#stack_8_0)"><path d="M64.01 34.72h-49.98a3.18 3.18 0 0 1-3.19-3.16v-9.47a3.18 3.18 0 0 1 3.19-3.16h49.98a3.18 3.18 0 0 1 3.18 3.16v9.47a3.18 3.18 0 0 1-3.18 3.16Zm-49.98-13.37a.75.75 0 0 0-.75.74v9.47c0 .41.34.74.75.74h49.98c.41 0 .74-.33.74-.74v-9.47c0-.4-.34-.74-.74-.74h-49.98Z"></path><path d="M57.04 67.17h-36.05a6.11 6.11 0 0 1-6.12-6.09v-27.57c0-.67.55-1.21 1.22-1.21.67 0 1.22.54 1.22 1.21v27.57a3.68 3.68 0 0 0 3.68 3.67h36.05a3.69 3.69 0 0 0 3.69-3.67v-27.57c0-.67.54-1.21 1.21-1.21.68 0 1.22.54 1.22 1.21v27.57a6.1 6.1 0 0 1-6.12 6.09Z"></path><path d="M39.02 67.17c-.68 0-1.22-.54-1.22-1.21v-32.45c0-.67.54-1.21 1.22-1.21.67 0 1.22.54 1.22 1.21v32.45c0 .67-.55 1.21-1.22 1.21Zm-15.21-45.82a7.82 7.82 0 1 1 7.49-13.76c5.81 3.13 8.95 11.86 9.08 12.23l-2.3.8c-.03-.08-2.96-8.22-7.94-10.9a5.45 5.45 0 0 0-7.36 2.17 5.38 5.38 0 0 0 2.19 7.32l-1.16 2.14Z"></path><path d="m54.23 21.35-1.16-2.14a5.38 5.38 0 0 0-1.04-9.92 5.4 5.4 0 0 0-4.13.43c-4.98 2.68-7.92 10.82-7.95 10.9l-2.3-.8c.13-.37 3.27-9.1 9.09-12.23a7.81 7.81 0 0 1 5.99-.62 7.77 7.77 0 0 1 5.29 9.73 7.8 7.8 0 0 1-3.79 4.65Zm7.71 29.6h-45.85c-.67 0-1.22-.55-1.22-1.21 0-.67.55-1.22 1.22-1.22h45.85a1.22 1.22 0 1 1 0 2.43Z"></path></g></svg><svg fill="none" viewBox="0 0 19.7 17.07" id="stack_10"><path fill="#666" fill-rule="evenodd" d="M19.46.15c.17.15.26.38.22.61l-2.62 15.76a.67.67 0 0 1-.39.49.65.65 0 0 1-.63-.06l-7.87-5.25a.64.64 0 0 1-.15-.95l2.61-3.27-4.36 2.91a.65.65 0 0 1-.66.04l-5.25-2.63a.63.63 0 0 1-.36-.62.64.64 0 0 1 .43-.58l18.38-6.57a.67.67 0 0 1 .65.12Zm-17.14 7.17 3.54 1.77 7.56-5.05a.66.66 0 0 1 .85.11c.22.24.23.6.03.85l-4.81 6.01 6.44 4.29 2.27-13.65-15.88 5.67Z"></path></svg><svg fill="none" viewBox="0 0 26.96 17" id="stack_11"><path fill="#666" d="M0 2.33c0-.85.51-1.31 1.54-1.38l3.97.03c.27 0 .44.12.53.37.41 1.26.87 2.35 1.38 3.26.5.91 1.16 1.97 1.98 3.16.07.15.19.22.35.22.12 0 .22-.06.29-.17l.08-.28.03-4.35c0-.3-.08-.5-.23-.6a1.94 1.94 0 0 0-.84-.23c-.32-.05-.48-.24-.48-.55 0-.07.01-.12.03-.16.37-1.08 1.44-1.63 3.19-1.63l1.5-.02c.67 0 1.23.15 1.68.47.44.32.66.82.66 1.51v5.71c.13.08.24.13.35.13.26 0 .49-.15.69-.46 1.95-2.58 3.01-4.31 3.17-5.18a1.76 1.76 0 0 1 .67-.78c.28-.18.53-.31.74-.37a.47.47 0 0 1 .24-.05h4.13l.27.02c.35 0 .63.16.82.48a1.34 1.34 0 0 1 .2.68l.02.2v.18a6.21 6.21 0 0 1-.95 2.2c-.5.78-1.15 1.62-1.93 2.52-.78.91-1.27 1.5-1.46 1.79-.16.2-.24.38-.24.55 0 .14.07.29.21.45l3.89 4.63c.21.27.32.56.32.88 0 .39-.16.71-.48.96-.32.25-.7.39-1.15.42l-.45.03h-4.05a.6.6 0 0 0-.11.01l-.1.02c-.39 0-.76-.16-1.1-.48l-2.5-2.97a1.34 1.34 0 0 0-.37-.33c-.07.27-.17.66-.28 1.16l-.26 1.08-.08.43c-.17.59-.55.94-1.11 1.05l-.38.03h-2.61c-1.47 0-2.94-.64-4.41-1.91a19.45 19.45 0 0 1-3.95-4.94 46.24 46.24 0 0 1-3.28-7.06 1.86 1.86 0 0 1-.13-.73Zm16.01 6.52c-.38 0-.71-.1-1.01-.29a.89.89 0 0 1-.46-.79v-5.79c0-.33-.09-.57-.26-.71-.18-.15-.49-.22-.94-.22l-1.52.05c-.76 0-1.34.13-1.73.38.78.35 1.18.92 1.18 1.71v4.42c-.04.42-.22.77-.54 1.05-.32.28-.67.41-1.06.41-.54 0-.94-.24-1.23-.73a26.33 26.33 0 0 1-3.09-5.63l-.24-.65-3.54-.03c-.23 0-.36.01-.39.04-.03.02-.04.1-.04.21 0 .15.02.31.05.48l.56 1.41c1.5 3.64 3.12 6.5 4.87 8.6 1.75 2.1 3.46 3.14 5.15 3.14h2.67c.1 0 .18-.03.24-.08a.96.96 0 0 0 .13-.34l.05-.26.51-2.21c.14-.3.26-.5.37-.6.2-.19.43-.28.69-.28.43 0 .87.24 1.31.73l2.26 2.72c.15.21.3.32.46.32h4.39c.54 0 .8-.12.8-.37a.4.4 0 0 0-.08-.25l-3.86-4.56c-.3-.35-.45-.73-.45-1.13 0-.4.14-.79.42-1.16.23-.33.68-.89 1.35-1.67a36.7 36.7 0 0 0 1.74-2.19 6 6 0 0 0 .99-1.84l.08-.33a.32.32 0 0 1-.03-.16.92.92 0 0 0-.02-.19h-4.19c-.26.1-.48.25-.64.45l-.16.48c-.44 1.15-1.6 2.94-3.49 5.35-.37.34-.81.51-1.3.51Z"></path></svg><svg fill="none" viewBox="0 0 24 18.68" id="stack_12"><path fill="#666" d="m15.85 8.79-5.24-3.49a.57.57 0 0 0-.33-.11.57.57 0 0 0-.34.08.64.64 0 0 0-.34.57v6.98a.64.64 0 0 0 .34.58.65.65 0 0 0 .67-.03l5.24-3.49a.61.61 0 0 0 .21-.24c.05-.09.08-.2.08-.31a.66.66 0 0 0-.29-.54Zm-4.95 2.81v-4.54l3.41 2.27-3.41 2.27Zm12.48-8.56a2.41 2.41 0 0 0-1.45-1.64c-3.72-1.43-9.68-1.4-9.93-1.4-.26 0-6.22-.03-9.94 1.4a2.41 2.41 0 0 0-1.45 1.64 25 25 0 0 0-.61 6.29c0 3.27.32 5.23.61 6.3a2.3 2.3 0 0 0 1.45 1.63c3.72 1.43 9.68 1.41 9.94 1.41h.07c.75 0 6.32-.04 9.86-1.41a2.3 2.3 0 0 0 1.45-1.63c.29-1.07.62-3.03.62-6.3 0-3.26-.33-5.22-.62-6.29Zm-1.26 12.26a1.1 1.1 0 0 1-.66.74c-3.49 1.34-9.4 1.32-9.46 1.32-.07 0-5.98.02-9.47-1.32a1.1 1.1 0 0 1-.66-.74c-.26-1-.57-2.85-.57-5.97 0-3.12.31-4.96.57-5.96.04-.17.13-.32.24-.45.11-.13.26-.23.42-.3 3.49-1.34 9.4-1.32 9.47-1.32.06 0 5.97-.02 9.46 1.32.16.07.31.17.42.3.11.13.2.28.24.45.26 1 .57 2.84.57 5.96s-.31 4.97-.57 5.97Z"></path></svg><svg fill="none" viewBox="0 0 33 38" id="stack_13"><defs><clipPath id="stack_14"><rect width="32" height="37" fill="#fff" fill-opacity="0" rx="0" transform="translate(.5 .5)"></rect></clipPath></defs><rect width="32" height="37" rx="0" transform="translate(.5 .5)"></rect><g clip-path="url(#stack_13_0)"><path fill="#FDC305" d="M6.01 20.93v-2.28c6.62-.93 13.29-1.38 19.97-1.35 0 .61 0 1.23-.06 1.84 1.9-.86 3.9-1.48 5.95-1.84a16.83 16.83 0 0 0-6.77-8.28 16.3 16.3 0 0 0-10.31-2.4c-3.6.37-6.98 1.94-9.62 4.47a17 17 0 0 0-4.99 9.51l5.83.33Zm20.96 3.55c-1.15 1.29-1.37 1.21-1.37 3.48v9.28a16.65 16.65 0 0 0 5.42-6.06 17.14 17.14 0 0 0 1.98-7.95c-.02-1.05-.12-2.1-.32-3.13a32.68 32.68 0 0 0-5.71 4.38Zm-20.68 1.5s-3.75-1.45-5.14-1.85a9.18 9.18 0 0 0-1.15-.28 16.93 16.93 0 0 0 8.59 14.15l-2.3-12.02Z"></path><path fill="#F06351" d="M26.03 17.29a92.75 92.75 0 0 0-1.38-16.64s-.14-1.3-.89-.24a14.5 14.5 0 0 0-1.18 3.98 68.56 68.56 0 0 0-12.65.34c-.78-2.71-2.16-3.98-2.82-3.72-.67.25-.72 3.34-.72 3.34l-.32 14.25c6.61-.92 13.29-1.35 19.96-1.31Z"></path><path fill="#000" d="M12.29 14.14c0-.09.99.69 1.39.93.41.24.61.42.61.6 0 .17-.27.34-.63.34-.35 0-.9-.12-.99-.27h1.22c-.6-.46-1.14-1-1.6-1.6Zm7.4.11-1.08 1.35c0 .06-.16.35.18.3a7.1 7.1 0 0 0 1.21-.29c.11 0 .07-.2-.11-.18-.18.02-.68.05-.99.11l.83-1.27s.07-.13-.04-.02Zm-3.11 6.15c.46-.2.84-.56 1.08-1.01.28-.65 0-.92-.43-1.01a2.4 2.4 0 0 0-1.73.35c-.38.36-.33.72-.04 1.01.34.27.72.49 1.12.66Z"></path><path fill="#F06351" d="M16.19 21.67c-.11.23-.27.43-.46.6-.28.24-.63.37-.99.39a2.06 2.06 0 0 1-1.45-.44c-.2-.12-.38-.27-.53-.44-.1-.11-.22-.2-.36-.26 0 0 .75 4.14 2.55 4.8 1.8.65 2.12-.76 2.18-1.15a5.74 5.74 0 0 0-.81-3.26c-.02-.31-.03-.11-.13-.24Z"></path><path fill="#000" d="M14.56 22.82c-.46-.07-.9-.23-1.3-.47a3.42 3.42 0 0 1-1.03-1.01.14.14 0 0 1-.02-.06l.02-.05c0-.02.01-.03.03-.05a.14.14 0 0 1 .04-.03l.06-.01a.1.1 0 0 1 .05.01l.04.03c.5.7 1.26 1.18 2.09 1.32.33-.03.65-.13.93-.31s.52-.42.69-.7l.14-.2.1.22s.36.76.99.8c.62.04 1.04-.41 1.59-1.29a.22.22 0 0 1 .05-.03l.05-.01.05.01.05.03c.03.02.05.05.06.09.01.04.01.08-.01.11-.64 1.01-1.26 1.46-1.86 1.42a1.5 1.5 0 0 1-.64-.26c-.2-.13-.36-.31-.47-.51a2.25 2.25 0 0 1-1.7.95Z"></path><path fill="#F06351" d="M25.98 19.11a57.95 57.95 0 0 0-5.02 5.25 31.44 31.44 0 0 1-5.24 4.94c-.22-.54-1.6-1.53-1.6-1.53s-3.1-2.16-5.13-3.86a32.83 32.83 0 0 1-3.1-3.03l-1.98-.11a22.38 22.38 0 0 0 11.88 8.89c.85-.14 3.24-1.88 5.02-3.29a58.15 58.15 0 0 0 5.89-5.96c.49-.59.88-1.28 1.13-2.02-1.09.4-1.85.72-1.85.72Z"></path></g></svg><svg fill="none" viewBox="0 0 70 59" id="stack_15"><path fill="#FDC305" d="M59.74 23.8a25.34 25.34 0 0 0-8.04-10.37 25.42 25.42 0 0 0-12.16-5.02 25.56 25.56 0 0 0-28.68 21.64 25.35 25.35 0 0 0 9.48 23.48 25.6 25.6 0 0 0 12.09 5.19c-.58-2.08-1.17-4.37-1.69-6.8a31.8 31.8 0 0 0 4.75 2.53s.12 2.14.28 4.54c1.79.03 3.57-.13 5.32-.47a2.36 2.36 0 0 1 0-.75c.29-1.86 1.09-5.2 1.25-7.36a14.93 14.93 0 0 0 2.89-3.68l-.06.44c-.55 4.23-1.69 8.74-2.39 9.99-.23.41-.51.8-.83 1.14a25.58 25.58 0 0 0 16.92-13.16 25.35 25.35 0 0 0 .87-21.34Zm-1.47 3.76c-.44.43-1.35.71-1.49-.57-.15-1.29-.19-2.2-.19-2.2s-1.93-3.4-2.65-3.44c-.72-.04-5.81 3.44-7.16 4.96-1.17 1.28-1.4 1.19-1.4 3.44 0 1.7.22 8.11.1 13.01l-8.13 2.15c-2.56.73-5.16 1.3-7.78 1.71l-1-5.79h-.14l-2.56-13.06s-3.81-1.43-5.2-1.82a3.83 3.83 0 0 0-3.99.63 5.08 5.08 0 0 0-1.73 3.82c.21.46.37.94.48 1.44.05.47-1.2.42-2 .42-.79 0-.91-1.43-.29-3.1.5-1.29 1.1-2.53 1.82-3.71a11.72 11.72 0 0 1 2.07-2.87s.14-.34 1.24-.24c1.11.1 7.27.43 7.27.43l.05-2.25c6.69-.92 13.44-1.36 20.19-1.33v1.81a22.57 22.57 0 0 1 8.12-1.98c.15 0 .3.03.44.1.13.06.24.16.33.29.34.42 2.4 2.97 2.64 3.34.67.95 1.28 1.95 1.83 2.98a6.23 6.23 0 0 1-.87 1.82v.01Z"></path><path fill="#F06351" d="m56.33 21.49.99 1.28c.67.95 1.28 1.95 1.83 2.98a6.12 6.12 0 0 1-.86 1.76c-.44.43-1.35.72-1.49-.57-.15-1.29-.21-2.15-.21-2.15s-1.93-3.4-2.65-3.44c-.72-.04-5.81 3.44-7.16 4.96-1.17 1.28-1.4 1.19-1.4 3.44 0 1.49.17 6.6.13 11.14 1.81.2 4.46.7 5.26 1.87 0 0-.29-7.12 7.79-3.4 0 0 .28-9.71 11.44-7.22a43.8 43.8 0 0 0-13.67-10.65Zm-10.51-2.3c.04-5.5-.43-10.99-1.4-16.4 0 0-.15-1.29-.86-.24-.6 1.26-1 2.6-1.2 3.97a70.96 70.96 0 0 0-12.79.34c-.82-2.73-2.22-3.97-2.89-3.64-.66.33-.74 3.25-.74 3.25l-.33 14.05c6.69-.92 13.45-1.37 20.21-1.33Z"></path><path fill="#E55645" d="M45.24 46.73c.13-1.06.2-2.47.24-4.02l-8.13 2.15a64.8 64.8 0 0 1-7.78 1.76l1.1 4.96c0 .1 0 .21.07.32a31.8 31.8 0 0 0 4.75 2.53 42.5 42.5 0 0 0 6.87-4.09v.06a15.07 15.07 0 0 0 2.88-3.67Z"></path><path fill="#000" d="M31.92 16.08c-.05-.1 1 .68 1.41.92.41.23.61.41.61.58 0 .17-.26.34-.62.34s-.92-.12-1-.26c-.08-.14.6 0 .94 0h.29a8.14 8.14 0 0 1-1.63-1.58Zm7.48.11s-.99 1.27-1.08 1.33c-.09.06-.17.34.19.29.41-.06.82-.15 1.21-.28.11-.06.07-.2-.12-.18-.19.02-.67.05-.99.11l.84-1.26s.03-.12-.05-.01Zm-3.13 6.06c.46-.2.85-.55 1.09-.99.28-.65 0-.9-.44-.99-.6-.11-1.23.01-1.75.34-.38.36-.33.72 0 .99.34.26.71.48 1.1.65Z"></path><path fill="#F06351" d="M35.91 23.5c-.11.23-.27.43-.46.6-.28.23-.63.36-.99.38-.55.05-1.1-.11-1.54-.44-.2-.12-.38-.27-.53-.45a.99.99 0 0 0-.36-.24s.75 4.07 2.57 4.73c1.81.65 2.15-.76 2.2-1.13a5.55 5.55 0 0 0-.82-3.22c0-.3-.02-.1-.07-.23Z"></path><path fill="#000" d="M34.22 24.63a3.55 3.55 0 0 1-2.35-1.41.21.21 0 0 1-.04-.1c0-.04.02-.07.04-.1.02-.02.03-.03.05-.03l.05-.01.06.01.04.03c.25.34.56.63.92.86.36.22.77.37 1.19.44a2.17 2.17 0 0 0 1.63-.99l.14-.19.1.22s.38.75 1 .79c.62.04 1.06-.42 1.63-1.28a.15.15 0 0 1 .09-.06c.04-.01.07 0 .11.02.03.02.05.05.06.09 0 .04 0 .08-.02.11-.67.97-1.3 1.44-1.89 1.4a1.6 1.6 0 0 1-1.12-.73 2.23 2.23 0 0 1-1.69.93Z"></path><path fill="#FDC305" fill-rule="evenodd" d="M39.91 34.27a3.74 3.74 0 0 1-7.48 0 3.73 3.73 0 0 1 3.74-3.72 3.72 3.72 0 0 1 3.74 3.72Z"></path><path fill="#111" d="m41.13 31.24-3.12 1.3 1.15-5.58-7.49 9.68 3.13-1.3-1.15 5.59 7.48-9.69Zm-7.37 3.8 4.15-5.37-.81 3.97 2-.81-4.19 5.37.81-3.96-1.96.8Z"></path><path fill="#111" fill-rule="evenodd" d="M33.48 32.47c0 .61-.5 1.11-1.12 1.11-.62 0-1.12-.5-1.12-1.11 0-.61.5-1.11 1.12-1.11.62 0 1.12.5 1.12 1.11Zm6.17 4.36c0 .43-.35.78-.78.78a.78.78 0 1 1 0-1.57c.43 0 .78.35.78.79Zm.52-1.72c0 .19-.15.35-.35.35a.35.35 0 0 1-.35-.35c0-.19.16-.35.35-.35.2 0 .35.16.35.35Z"></path><path fill="#F06351" d="M45.77 20.98a57.64 57.64 0 0 0-5.08 5.17 30.94 30.94 0 0 1-5.3 4.86c-.22-.52-1.62-1.51-1.62-1.51s-3.14-2.13-5.19-3.8a31.5 31.5 0 0 1-3.13-2.98l-2-.11a22.61 22.61 0 0 0 11.97 8.77c.86-.14 3.28-1.86 5.08-3.25a57.25 57.25 0 0 0 5.99-5.87c.5-.58.88-1.26 1.14-1.98-1.14.38-1.86.7-1.86.7Z"></path><path fill="#FDC305" d="m65.07 3.47-8.44 9.36-1.22-1.97 8.13-10.86 1.53 3.47Zm-2.57 13.65 5.53-4.08-.78-3.71-5.39 4.77.64 3.02Zm-2.72 31.85 6.11 3.15 3.01-2.32-6.68-2.73-2.44 1.9Zm-57.84-43.05 3.06-3.34 9.27 8.93-1.22 2.26-11.11-7.85Zm5.42 10.22-4.69-3.1-2.4 3.84 5.14 2.38 1.95-3.12Zm6.51 35.98-4.54 3.32 2.8 3.56 4.01-3.99-2.27-2.89Z"></path><path fill="#F06351" d="M25.87 27.77s-3.81-1.43-5.2-1.82a3.83 3.83 0 0 0-3.99.63 5.08 5.08 0 0 0-1.73 3.82c.21.46.37.94.48 1.44.05.47-1.2.42-2 .42-.79 0-.91-1.43-.29-3.1.5-1.29 1.1-2.53 1.82-3.71-5.44 2.82-14.96 9.32-14.96 9.32 2.72-.16 5.46-.08 8.17.24 5.23.53 4.98 4.63 4.98 4.63 1.85-.5 3.72-.87 5.62-1.1 2.12-.14 2.27 2.1 2.27 2.1l.53 3.83a18.4 18.4 0 0 1 2.64-2.34 6.09 6.09 0 0 1 4.37-1.29l-2.71-13.07Z"></path></svg><svg fill="none" viewBox="0 0 60 50" id="stack_16"><path fill="#FDC305" d="M51.2 19.05a22.3 22.3 0 0 0-6.88-9.13 21.6 21.6 0 0 0-30.62 4.02 22.65 22.65 0 0 0 3.73 31.26 21.78 21.78 0 0 0 10.37 4.56c-.5-1.83-1-3.84-1.45-5.98 1.3.86 2.66 1.6 4.07 2.22 0 0 .1 1.89.24 3.99 1.53.03 3.06-.11 4.56-.41a1.83 1.83 0 0 1 0-.66c.25-1.63.93-4.57 1.07-6.47.99-.94 1.82-2.03 2.48-3.23l-.05.38c-.47 3.72-1.46 7.69-2.06 8.79-.19.36-.43.7-.7 1a21.79 21.79 0 0 0 8.5-4.16c2.5-2 4.55-4.53 6-7.41a22.78 22.78 0 0 0 .74-18.77Zm-1.25 3.3c-.38.38-1.16.63-1.29-.5a39.52 39.52 0 0 1-.16-1.93s-1.65-2.99-2.27-3.03c-.61-.03-4.98 3.03-6.14 4.36-1 1.13-1.19 1.05-1.19 3.03 0 1.49.19 7.13.08 11.44l-6.97 1.89a54.46 54.46 0 0 1-6.67 1.5l-.85-5.08h-.12l-2.2-11.49s-3.26-1.26-4.46-1.6a3.23 3.23 0 0 0-1.79-.24c-.6.1-1.17.37-1.63.79a4.46 4.46 0 0 0-1.48 3.36c.18.4.32.83.41 1.26.05.42-1.02.38-1.71.38-.68 0-.78-1.26-.24-2.73.42-1.14.94-2.23 1.55-3.27a10.8 10.8 0 0 1 1.77-2.52s.12-.29 1.07-.21c.95.09 6.23.38 6.23.38l.04-1.98a119.4 119.4 0 0 1 17.31-1.17v1.6a18.7 18.7 0 0 1 6.96-1.75c.13 0 .26.03.37.09a.7.7 0 0 1 .29.25c.29.38 2.06 2.62 2.27 2.94.57.84 1.09 1.71 1.56 2.62a5.55 5.55 0 0 1-.74 1.6v.01Z"></path><path fill="#F06351" d="m48.28 17.01.85 1.13c.58.84 1.1 1.71 1.57 2.62a5.4 5.4 0 0 1-.74 1.55c-.37.37-1.15.63-1.28-.51a43.6 43.6 0 0 1-.18-1.88s-1.65-2.99-2.26-3.03c-.62-.03-4.99 3.03-6.15 4.36-1 1.13-1.19 1.05-1.19 3.03 0 1.31.14 5.8.11 9.8 1.55.17 3.82.61 4.51 1.64 0 0-.25-6.27 6.67-2.99 0 0 .24-8.54 9.81-6.35a37.69 37.69 0 0 0-11.72-9.37Zm-9.01-2.02c.04-4.84-.36-9.66-1.19-14.42 0 0-.13-1.14-.75-.21a12.4 12.4 0 0 0-1.02 3.49 60.01 60.01 0 0 0-10.97.29c-.7-2.39-1.9-3.49-2.47-3.2-.57.29-.64 2.86-.64 2.86l-.28 12.36c5.74-.81 11.53-1.2 17.32-1.17Z"></path><path fill="#E55645" d="M38.78 39.22c.11-.94.17-2.18.2-3.55l-6.97 1.9a54.18 54.18 0 0 1-6.67 1.54l.95 4.36c0 .1 0 .2.06.29 1.3.86 2.66 1.6 4.07 2.23a36.32 36.32 0 0 0 5.89-3.61v.06a13.6 13.6 0 0 0 2.47-3.22Z"></path><path fill="#000" d="M27.36 12.26c-.04-.09.86.59 1.21.8.35.21.52.37.52.52 0 .14-.22.29-.53.29-.31 0-.79-.1-.86-.22-.07-.13.52 0 .81 0h.24c-.52-.4-.99-.86-1.39-1.39Zm6.41.09s-.85 1.12-.93 1.17c-.07.06-.14.3.17.26.35-.06.7-.14 1.04-.25.09-.05.06-.17-.1-.16-.17.02-.59.05-.86.1l.73-1.11s.02-.1-.05-.01Zm-2.68 5.33c.4-.17.72-.48.93-.87.24-.57 0-.79-.37-.87-.52-.1-1.06.01-1.5.3-.33.32-.29.63 0 .87.29.23.6.42.94.57Z"></path><path fill="#F06351" d="M30.78 18.78c-.1.2-.23.38-.39.53-.25.2-.54.31-.86.33-.47.05-.94-.09-1.31-.38a1.77 1.77 0 0 1-.46-.4.93.93 0 0 0-.3-.22s.64 3.59 2.19 4.17c1.56.57 1.85-.67 1.89-1a5.02 5.02 0 0 0-.7-2.83c0-.26-.02-.08-.06-.2Z"></path><path fill="#000" d="M29.33 19.78c-.4-.06-.79-.2-1.13-.42a2.79 2.79 0 0 1-.88-.83c-.02-.02-.03-.05-.03-.09 0-.03.01-.06.03-.08l.04-.03.04-.01.05.01.04.03c.21.3.48.56.79.75.31.2.65.33 1.01.39a1.8 1.8 0 0 0 1.41-.87l.12-.17.08.19s.33.67.86.7c.53.04.9-.37 1.39-1.12a.16.16 0 0 1 .08-.06c.03 0 .06 0 .09.02s.05.05.05.08c.01.03 0 .07-.01.1-.57.85-1.11 1.26-1.62 1.23a1.37 1.37 0 0 1-.96-.64c-.17.24-.38.43-.63.58-.26.14-.54.22-.82.24Z"></path><path fill="#FDC305" fill-rule="evenodd" d="M34.21 28.25a3.23 3.23 0 0 1-3.21 3.27 3.23 3.23 0 0 1-3.2-3.27 3.23 3.23 0 0 1 3.2-3.27 3.23 3.23 0 0 1 3.21 3.27Z"></path><path fill="#111" d="m35.25 25.59-2.67 1.14.98-4.91-6.41 8.52 2.67-1.15-.98 4.92 6.41-8.52Zm-6.32 3.34 3.56-4.72-.69 3.49 1.71-.71-3.58 4.72.69-3.49-1.69.71Z"></path><path fill="#111" fill-rule="evenodd" d="M28.7 26.67c0 .54-.43.98-.96.98a.97.97 0 0 1-.96-.98c0-.54.43-.98.96-.98s.96.44.96.98Zm5.29 3.83c0 .38-.3.69-.68.69a.68.68 0 0 1-.67-.69c0-.38.3-.69.67-.69.38 0 .68.31.68.69Zm.44-1.51a.3.3 0 0 1-.3.31.31.31 0 0 1-.3-.31c0-.17.14-.3.3-.3.17 0 .3.13.3.3Z"></path><path fill="#F06351" d="M39.23 16.57a50.4 50.4 0 0 0-4.35 4.54 27.86 27.86 0 0 1-4.54 4.28c-.19-.46-1.4-1.33-1.4-1.33s-2.68-1.87-4.44-3.35a26.61 26.61 0 0 1-2.69-2.62l-1.71-.09a19.38 19.38 0 0 0 10.26 7.71c.74-.12 2.81-1.63 4.36-2.86a49.99 49.99 0 0 0 5.13-5.16c.42-.51.75-1.1.97-1.74-.97.33-1.59.62-1.59.62Zm-17.06 5.97s-3.26-1.26-4.46-1.6a3.2 3.2 0 0 0-3.42.55 4.43 4.43 0 0 0-1.48 3.36c.19.4.32.83.41 1.26.05.42-1.02.38-1.71.38-.68 0-.78-1.26-.24-2.73.42-1.14.94-2.23 1.55-3.27-4.66 2.48-12.82 8.21-12.82 8.21 2.33-.15 4.68-.08 7 .2 4.49.47 4.27 4.08 4.27 4.08 1.58-.45 3.19-.77 4.82-.97 1.81-.12 1.94 1.85 1.94 1.85l.45 3.37c.69-.76 1.45-1.45 2.27-2.06a5.16 5.16 0 0 1 3.75-1.14l-2.33-11.49Z"></path></svg><svg fill="none" viewBox="0 0 101 18" id="stack_17"><defs><clipPath id="stack_18"><rect width="100" height="17" fill="#fff" fill-opacity="0" rx="0" transform="translate(.5 .5)"></rect></clipPath></defs><rect width="100" height="17" rx="0" transform="translate(.5 .5)"></rect><g fill="#111" clip-path="url(#stack_13_text_0)"><path d="M1.26 16.53a6.78 6.78 0 0 1-1.26-4.3v-6.39a6.9 6.9 0 0 1 1.18-4.38c.87-1 2.21-1.46 4.19-1.46 1.97 0 3.24.46 4.03 1.3a5.45 5.45 0 0 1 1.19 3.77v1.54h-3.88v-1.77a3.85 3.85 0 0 0-.23-1.54 1.1 1.1 0 0 0-.46-.47c-.2-.11-.42-.16-.65-.14-.55 0-.95.15-1.11.54a4.58 4.58 0 0 0-.23 1.69v8.23c-.05.56.06 1.11.31 1.61.16.39.55.54 1.11.54.55 0 .87-.15 1.03-.54a4.2 4.2 0 0 0 .23-1.61v-1.85h3.88v1.54a5.77 5.77 0 0 1-1.19 3.85c-.79.92-2.13 1.38-4.03 1.38-1.9-.07-3.32-.54-4.11-1.54Zm13.99-16.3h4.5l3.32 17.53h-3.63l-.64-3.69h-2.6l-.64 3.69h-3.71l3.4-17.53Zm3.24 11.53-.95-6.84-.95 6.84h1.9Zm7.35-8.61h-2.69v-2.92h9.41v2.84h-2.69v14.69h-4.03v-14.61Zm13.91-2.92h6.95v1.84h-4.5v5.77h3.63v1.77h-3.63v6.46h4.5v1.77h-7.03v-17.61h.08Zm9.01 0h1.74l5.13 11.61v-11.61h2.06v17.53h-1.58l-5.22-12v12h-2.13v-17.53Zm11.3 0h6.95v1.84h-4.5v5.77h3.63v1.77h-3.63v6.46h4.5v1.77h-6.95v-17.61Zm9.01 0h3.63c1.43-.1 2.85.28 4.03 1.07.87.7 1.27 1.93 1.27 3.54 0 2.23-.71 3.62-2.22 4.08l2.53 8.77h-2.45l-2.37-8.23h-1.97v8.23h-2.53v-17.46h.08Zm3.47 7.53c.82.07 1.63-.15 2.3-.61.47-.39.71-1.15.71-2.31a4.87 4.87 0 0 0-.24-1.69 1.94 1.94 0 0 0-.87-.92 3.57 3.57 0 0 0-1.74-.31h-1.1v5.77h.94v.07Zm8.62 8.7a7.64 7.64 0 0 1-1.11-4.46v-5.85a12.3 12.3 0 0 1 .4-3.31c.26-.81.79-1.51 1.5-2 .88-.51 1.9-.75 2.92-.69 1.66 0 2.85.38 3.56 1.23a5.8 5.8 0 0 1 1.11 3.85v.61h-2.38v-.54c.01-.64-.04-1.28-.15-1.92-.07-.4-.3-.76-.64-1a2.46 2.46 0 0 0-1.5-.38 2.37 2.37 0 0 0-1.58.46c-.18.15-.34.34-.44.55-.11.21-.18.44-.19.68-.1.68-.16 1.38-.16 2.07v6.54c-.06 1 .11 2 .48 2.93.31.61.94.84 1.89.84a1.93 1.93 0 0 0 1.9-.92 6.8 6.8 0 0 0 .55-3.08v-1.23h-2.29v-1.77h4.58v8.69h-1.58l-.23-2a3.27 3.27 0 0 1-3.24 2.24 4.1 4.1 0 0 1-3.4-1.54Zm13.51-4.85-3.87-11.31h2.37l2.77 8.46 2.68-8.46h2.38l-3.88 11.31v6.15h-2.37v-6.15h-.08Z"></path></g></svg><svg fill="none" viewBox="0 0 67.032 28.081" id="stack_19"><path fill="#000" d="M61.55 2.87a7.71 7.71 0 0 1 2.25-2.3c.5-.35.8-.35 1.1.3.4.95.75 1.95.45 3-.05.18-.06.37-.03.55.04.19.12.36.23.5.3.4.55.8.8 1.15a3.1 3.1 0 0 1 .45 3.1c-.18.5-.21 1.04-.1 1.55.1.5.1 1.01 0 1.5a1.88 1.88 0 0 1-1.35 1.6c-.64.13-1.21.48-1.6 1a.5.5 0 0 1-.19.19.58.58 0 0 1-.26.06c-.6.1-2.1-1.25-2.1-1.85v-.3c.05-1.8-.05-1.95-1.7-2.7a2.16 2.16 0 0 1-.9-.6c-.3-.4-.7-.35-1.15-.2-.45.15-.7.45-.65.95.15 1.21.21 2.43.15 3.65.01.14.04.28.1.4 1.55 2.25 2.15 4.9 2.9 7.45.6 1.95 1.7 3 3.7 3.15.32.03.64.08.95.15.41.07.8.26 1.1.54.3.29.51.66.6 1.06.35 1.05.15 1.3-.9 1.3h-3.25c-.42.02-.83-.12-1.15-.4a6.04 6.04 0 0 0-1.7-1 3.63 3.63 0 0 1-1.7-1.3 14.2 14.2 0 0 0-2-2.25c-1.4-1.45-2.9-2.85-4.2-4.35a5.67 5.67 0 0 1-1.6-3.8c0-.45-.1-.65-.6-.45a.89.89 0 0 1-.5.15c-1.4 0-2.1.85-2.6 2.1-.45 1.05-1.05 2.05-1.6 3.1a5.3 5.3 0 0 0-.5 2.1c0 1.2.3 1.6 1.4 2 .7.25 1.35.5 1.7 1.2.4.8.3 1-.55 1.05h-3.4a.92.92 0 0 1-.56-.12.96.96 0 0 1-.39-.43l-.9-1.5a3.08 3.08 0 0 1-.35-2.7c.22-.86.24-1.77.05-2.65a4.23 4.23 0 0 1 .85-3.5c.3-.35.3-.5-.2-.6a24.88 24.88 0 0 1-5.9-2.05l-.03-.01-.02-.04c-1.6-.6-1.9-.5-2.35 1.15-.4 1.4-.8 2.8-1.1 4.25-.35 1.6.05 3.1.55 4.6.2.6.8.55 1.25.7 1 .3 1.85.7 2.25 1.75.35.8.3.9-.55.9-.85 0-1.7-.05-2.6 0-.76.02-1.5-.23-2.1-.7-2.4-1.6-3.1-4.05-3.3-6.7-.1-1.65-1-2.95-2.05-4.2-.2-.25-.4-.35-.7-.15-1.07.6-2.19 1.1-3.35 1.5a13.43 13.43 0 0 0-6.1 4.4 5.45 5.45 0 0 0-1.1 2.55c-.15.9.1 1.3 1 1.55s1.35.75 1.45 1.7c.05.4-.1.6-.5.6h-4.05a.83.83 0 0 1-.65-.4 4.33 4.33 0 0 1-.95-2.75c-.02-1.72.13-3.45.45-5.15a3.2 3.2 0 0 1 1.7-2.4c2.95-1.4 4.5-4.05 5.9-6.8.3-.55.05-.65-.45-.6-1.4.2-2.72.75-3.85 1.6a36 36 0 0 0-4.15 3.55 8.25 8.25 0 0 1-5.15 2.45c-3.65.2-5.35-1.85-5.2-5.15.04-1.12.46-2.2 1.2-3.05.26-.33.61-.58 1.01-.71a2.1 2.1 0 0 1 1.24-.04c.75.2.95.6.65 1.35-.15.3-.35.55-.5.85-.21.31-.38.65-.5 1-.55 1.5.2 2.55 1.75 2.7 1.65.15 3-.55 4.25-1.55 1.51-1.2 2.85-2.6 4-4.15a10.56 10.56 0 0 1 3.18-2.77 10.59 10.59 0 0 1 4.02-1.28c1.15-.15 2.15-.65 3.25-.95 2.06-.62 4.2-.93 6.35-.9 1 .04 1.99-.14 2.9-.55 2.45-1 5-1 7.55-.5 2 .4 4 .9 5.95 1.4a8.1 8.1 0 0 0 3.5-.1c2.2-.55 4.44-.89 6.7-1a9.08 9.08 0 0 1 4.3.85c1 .45 1 .45.75 1.4Z"></path></svg><svg fill="none" viewBox="0 0 36.017 50" id="stack_20"><path fill="#000" d="M28.2 0h-.2c-.33.18-.59.47-.75.81a7.95 7.95 0 0 0-.66 1.76.87.87 0 0 1-.26.48.86.86 0 0 1-.5.21c-.57.1-1.11.33-1.57.67-.47.33-.85.77-1.12 1.28-.37.66-.69 1.35-.95 2.06-.73 1.9-1.29 3.86-1.98 5.77-.33.87-.34.87-1.32.87-1.17 0-1.09-.18-1.1 1.11 0 .41.12.61.55.59.14 0 .34-.06.39.11.05.18-.12.25-.23.36a4.7 4.7 0 0 1-2.22 1.26c-.98.26-1.98.46-2.93.78-2.44.82-4.7 1.97-6.46 3.91a14.48 14.48 0 0 0-2.44 4.04c-1.88 4.45-2.8 9.14-3.51 13.88a99.44 99.44 0 0 0-.75 6.7c-.09 1.1-.19 2.22-.19 3.35h17.14c.02-.23-.02-.46-.12-.66a2.48 2.48 0 0 0-.78-1.05 2.53 2.53 0 0 0-1.19-.54c-.36-.08-.4-.19-.18-.47.36-.48.64-1.02.82-1.6.83-2.48 1.16-5.07 1.56-7.63.23-1.96.83-3.85 1.77-5.58a11.17 11.17 0 0 1 2.88-3.28c.43-.33.44-.33.51.22.05.37.06.74.09 1.12.15 2.43.12 4.87-.09 7.31-.2 1.88-.22 3.78-.08 5.67.2 2.19.6 4.36 1.17 6.49h6.84a2.81 2.81 0 0 0-2.18-2.29 4.53 4.53 0 0 0-1.94.1c-.3.07-.43 0-.46-.34-.21-2.72-.04-5.47.52-8.15a92.5 92.5 0 0 0 1.57-9.37c.13-1.27.53-2.5 1.17-3.61.61-1.09 1.15-2.23 1.75-3.32a3.06 3.06 0 0 0 .22-2.68c-.14-.37-.28-.74-.45-1.09-.51-1-1.02-2-1.5-3.01-.25-.52-.19-.58.37-.6.84 0 .84 0 .85-.84v-.34c0-.36-.13-.55-.51-.52h-.79c-.35 0-.45-.15-.37-.51a3.22 3.22 0 0 1 2.64-2.29 11.5 11.5 0 0 1 3.41.23c.13.04.27.03.39-.04a.5.5 0 0 0 .25-.29c.21-.52.43-1.03.66-1.55.06-.09.08-.2.07-.3a.5.5 0 0 0-.12-.29c-1.64-2.09-3.43-4.04-5.86-5.3a.76.76 0 0 1-.45-.57c-.14-.74-.36-1.46-.66-2.15a1.74 1.74 0 0 0-.72-.88Z"></path></svg></svg></svg>