<svg xmlns="http://www.w3.org/2000/svg" fill="none" viewBox="0 0 24.8 28"><path fill="#FFF" d="M24.77.76a.95.95 0 0 0-.91-.76h-.01c-4.93.03-16.94.91-21.79 8.38-2.52 3.87-2.73 8.91-.64 14.96.01.05.05.08.07.12-.75 1.97-1.04 3.29-1.05 3.33-.11.54.22 1.07.72 1.18a.7.7 0 0 0 .2.03c.43 0 .82-.33.92-.79.02-.11 2.4-10.38 10.85-16.38.43-.31.55-.93.26-1.39a.9.9 0 0 0-1.3-.28c-4.79 3.41-7.74 8.01-9.47 11.66-1.24-4.58-.92-8.38.98-11.31 3.75-5.76 12.63-7.15 17.98-7.44-1.15 1.8-2.41 5.1-2.41 10.93 0 3.12-.83 5.52-2.46 7.14-2.62 2.59-6.88 2.83-10 2.58-.51-.05-.96.37-1 .92-.04.55.35 1.03.86 1.07.62.05 1.29.09 1.98.09 3.17 0 6.87-.67 9.43-3.2 2.04-2.01 3.07-4.9 3.07-8.6 0-9.1 3.21-11.1 3.23-11.11.39-.21.59-.68.49-1.13Z"/></svg>